# xmcd CD database file
#
# Track frame offsets:
#	150
#	13340
#	26815
#	39560
#	55392
#	68785
#	82275
#	95227
#	109767
#	122870
#	140402
#	151395
#
# Disc length: 2190 seconds
#
# Revision: 2
# Processed by: cddbd v1.4PL0 Copyright (c) Steve Scherf et al.
# Submitted via: CDex 1.50
#
DISCID=b1088c0c
DTITLE=Die jungen Zellberger - Drauf sein mir stolz
DYEAR=1900
DGENRE=Folk
TTITLE0=Drauf sein mir stolz
TTITLE1=Boarisch Tanzen ist ein Hit
TTITLE2=Der Sonntag ist der Tag des Herrn
TTITLE3=Ind Land eini schaun
TTITLE4=Nichts hält mi no am Bodn
TTITLE5=Ich küss Dich noch einmal
TTITLE6=Da Dings
TTITLE7=Bist a Wahnsinn für mi
TTITLE8=Ja die Tirolerleut
TTITLE9=Mit san doch mir
TTITLE10=Skilehrer musst sein
TTITLE11=Ohne uns da geht nix
EXTD=
EXTT0=
EXTT1=
EXTT2=
EXTT3=
EXTT4=
EXTT5=
EXTT6=
EXTT7=
EXTT8=
EXTT9=
EXTT10=
EXTT11=
PLAYORDER=
